<svg width="25" height="25" viewBox="0 0 25 25" fill="none" xmlns="http://www.w3.org/2000/svg">
<g clip-path="url(#clip0_0_1)">
<path d="M11.0437 1.13594C11.4234 -0.379688 13.575 -0.379688 13.9562 1.13594L14.0672 1.58281C14.1321 1.84251 14.2653 2.08011 14.453 2.27095C14.6407 2.46179 14.8761 2.59892 15.1347 2.66811C15.3933 2.7373 15.6657 2.73603 15.9236 2.66444C16.1816 2.59284 16.4156 2.45352 16.6016 2.26094L16.9219 1.93125C18.0078 0.807812 19.8719 1.88437 19.4422 3.38594L19.3172 3.82969C19.2436 4.08695 19.2402 4.35922 19.3072 4.61825C19.3743 4.87729 19.5095 5.11367 19.6987 5.30288C19.8879 5.49209 20.1243 5.62724 20.3833 5.69432C20.6423 5.7614 20.9146 5.75796 21.1719 5.68437L21.6141 5.55781C23.1141 5.12812 24.1922 6.99219 23.0687 8.07812L22.7391 8.39844C22.5465 8.58436 22.4072 8.81844 22.3356 9.07637C22.264 9.33431 22.2627 9.60671 22.3319 9.8653C22.4011 10.1239 22.5382 10.3593 22.729 10.547C22.9199 10.7347 23.1575 10.8679 23.4172 10.9328L23.8641 11.0437C25.3797 11.4234 25.3797 13.575 23.8641 13.9562L23.4172 14.0672C23.1575 14.1321 22.9199 14.2653 22.729 14.453C22.5382 14.6407 22.4011 14.8761 22.3319 15.1347C22.2627 15.3933 22.264 15.6657 22.3356 15.9236C22.4072 16.1816 22.5465 16.4156 22.7391 16.6016L23.0687 16.9219C24.1922 18.0078 23.1156 19.8719 21.6141 19.4422L21.1703 19.3172C20.913 19.2436 20.6408 19.2402 20.3817 19.3072C20.1227 19.3743 19.8863 19.5095 19.6971 19.6987C19.5079 19.8879 19.3728 20.1243 19.3057 20.3833C19.2386 20.6423 19.242 20.9146 19.3156 21.1719L19.4422 21.6141C19.8719 23.1141 18.0078 24.1922 16.9219 23.0687L16.6016 22.7391C16.4156 22.5465 16.1816 22.4072 15.9236 22.3356C15.6657 22.264 15.3933 22.2627 15.1347 22.3319C14.8761 22.4011 14.6407 22.5382 14.453 22.729C14.2653 22.9199 14.1321 23.1575 14.0672 23.4172L13.9562 23.8641C13.5766 25.3797 11.425 25.3797 11.0437 23.8641L10.9328 23.4172C10.8679 23.1575 10.7347 22.9199 10.547 22.729C10.3593 22.5382 10.1239 22.4011 9.8653 22.3319C9.60671 22.2627 9.33431 22.264 9.07637 22.3356C8.81844 22.4072 8.58436 22.5465 8.39844 22.7391L8.07812 23.0687C6.99219 24.1922 5.12812 23.1156 5.55781 21.6141L5.68281 21.1703C5.75626 20.9132 5.75965 20.6411 5.69263 20.3823C5.62561 20.1234 5.49061 19.8872 5.30162 19.6981C5.11263 19.5089 4.87651 19.3737 4.61771 19.3065C4.35892 19.2392 4.08685 19.2424 3.82969 19.3156L3.38594 19.4422C1.88594 19.8719 0.807812 18.0078 1.93125 16.9219L2.26094 16.6016C2.45352 16.4156 2.59284 16.1816 2.66444 15.9236C2.73603 15.6657 2.7373 15.3933 2.66811 15.1347C2.59892 14.8761 2.46179 14.6407 2.27095 14.453C2.08011 14.2653 1.84251 14.1321 1.58281 14.0672L1.13594 13.9562C-0.379688 13.5766 -0.379688 11.425 1.13594 11.0437L1.58281 10.9328C1.84251 10.8679 2.08011 10.7347 2.27095 10.547C2.46179 10.3593 2.59892 10.1239 2.66811 9.8653C2.7373 9.60671 2.73603 9.33431 2.66444 9.07637C2.59284 8.81844 2.45352 8.58436 2.26094 8.39844L1.93125 8.07812C0.807812 6.99219 1.88437 5.12812 3.38594 5.55781L3.82969 5.68281C4.08679 5.75626 4.35885 5.75965 4.61771 5.69263C4.87656 5.62561 5.11279 5.49061 5.30194 5.30162C5.4911 5.11263 5.62629 4.87651 5.69353 4.61771C5.76077 4.35892 5.75761 4.08685 5.68437 3.82969L5.55781 3.38594C5.12812 1.88594 6.99219 0.807812 8.07812 1.93125L8.39844 2.26094C8.58436 2.45352 8.81844 2.59284 9.07637 2.66444C9.33431 2.73603 9.60671 2.7373 9.8653 2.66811C10.1239 2.59892 10.3593 2.46179 10.547 2.27095C10.7347 2.08011 10.8679 1.84251 10.9328 1.58281L11.0437 1.13594ZM20.2703 13.2812H12.8906L8.4625 19.1859C9.59043 19.8672 10.8724 20.252 12.1891 20.3044C13.5057 20.3569 14.8143 20.0753 15.9928 19.486C17.1714 18.8966 18.1816 18.0186 18.9296 16.9337C19.6775 15.8489 20.1387 14.5924 20.2703 13.2812ZM20.2703 11.7187C20.1387 10.4076 19.6775 9.15114 18.9296 8.06625C18.1816 6.98137 17.1714 6.10337 15.9928 5.51402C14.8143 4.92466 13.5057 4.6431 12.1891 4.69556C10.8724 4.74803 9.59043 5.1328 8.4625 5.81406L12.8906 11.7203L20.2703 11.7187ZM7.8875 6.19844C7.84062 6.23125 7.79687 6.26562 7.75156 6.3L7.8875 6.19844ZM7.21406 6.75312C6.41776 7.48355 5.78217 8.37169 5.34773 9.36108C4.9133 10.3505 4.68952 11.4194 4.69062 12.5C4.69062 14.7734 5.6625 16.8203 7.21406 18.2469L11.5234 12.5L7.21406 6.75312Z" fill="white"/>
</g>
<defs>
<clipPath id="clip0_0_1">
<rect width="25" height="25" fill="white"/>
</clipPath>
</defs>
</svg>
