<svg width="27" height="27" viewBox="0 0 27 27" fill="none" xmlns="http://www.w3.org/2000/svg">
<g clip-path="url(#clip0_0_1)">
<path d="M0 11.9118L13.3291 8.41765L26.6582 11.9118V19.0797C26.6582 20.3994 26.1549 21.6763 25.2378 22.6837C24.9327 23.0189 24.586 23.3194 24.2051 23.579L23.4597 24.0871C22.6326 24.6508 21.7405 25.1271 20.7999 25.5072L20.6463 25.5693C19.0829 26.201 17.4171 26.5856 15.7173 26.7071L15.1855 26.7451C14.2909 26.8091 13.3924 26.8124 12.4972 26.755L11.9716 26.7213C9.93111 26.5905 7.93243 26.1207 6.07049 25.334L4.51963 24.6789C3.67795 24.3233 2.91197 23.8299 2.25823 23.2223C0.81231 21.8785 0 20.0559 0 18.1553V11.9118Z" fill="white"/>
<path d="M0.0710287 3.49412L13.5 0.0383101L26.8291 3.49412L26.4873 7.18537L13.5 4.0089L0.0710318 7.18537L0.0710287 3.49412Z" fill="white"/>
</g>
<defs>
<clipPath id="clip0_0_1">
<rect width="27" height="27" fill="white"/>
</clipPath>
</defs>
</svg>
