<svg width="27" height="27" viewBox="0 0 27 27" fill="none" xmlns="http://www.w3.org/2000/svg">
<g clip-path="url(#clip0_0_1)">
<mask id="mask0_0_1" style="mask-type:luminance" maskUnits="userSpaceOnUse" x="0" y="0" width="27" height="27">
<path d="M0 0H27V27H0V0Z" fill="white"/>
</mask>
<g mask="url(#mask0_0_1)">
<path d="M19.5041 16.0911C19.3418 15.8468 19.1288 15.6403 18.8796 15.4857C18.6303 15.331 18.3506 15.2319 18.0596 15.1951H18.0554C17.6764 15.1479 17.2917 15.2079 16.945 15.3684C16.5984 15.5289 16.3037 15.7834 16.0945 16.103C15.6385 15.7455 15.0849 15.5343 14.5066 15.4972C14.6483 15.2272 14.8238 14.974 15.0297 14.7454C14.5112 14.4061 14.0855 13.9431 13.7908 13.398C13.4962 12.853 13.342 12.2431 13.3422 11.6235V11.4927C12.8042 11.1057 12.3787 10.5825 12.1094 9.97681C11.8402 9.37114 11.7368 8.70477 11.81 8.046C11.7095 8.07768 11.6079 8.10582 11.5054 8.13037H11.5062C11.3421 8.82051 10.9792 9.44739 10.4625 9.93346C10.6675 10.611 10.6675 11.3341 10.4625 12.0116C10.9825 12.4999 11.347 13.1306 11.5104 13.8248C11.9898 13.9392 12.4409 14.1499 12.8363 14.4441C13.2317 14.7382 13.5631 15.1097 13.8105 15.536C13.2437 15.6369 12.7203 15.9056 12.3078 16.3072C12.1336 16.0312 11.8924 15.8039 11.6066 15.6464C11.3208 15.489 10.9997 15.4066 10.6734 15.4069H10.6523C10.3454 15.4095 10.0435 15.4856 9.772 15.6287C9.50045 15.7718 9.26708 15.9778 9.09141 16.2295C8.81331 16.6245 8.69391 17.1096 8.7569 17.5885C8.81989 18.0674 9.06067 18.5052 9.43144 18.8148C9.7171 19.0545 10.066 19.2064 10.4361 19.2523C10.8062 19.2981 11.1817 19.2358 11.5172 19.073C11.6201 19.4856 11.8108 19.8627 12.0682 20.1833L11.6775 20.8145C11.2064 20.9503 10.7126 20.9891 10.2261 20.9284C9.73958 20.8677 9.27045 20.7088 8.84717 20.4614C8.42389 20.214 8.05527 19.8832 7.76366 19.489C7.47206 19.0949 7.26355 18.6456 7.15078 18.1685C6.67002 18.0553 6.21752 17.8449 5.8212 17.5502C5.42487 17.2555 5.09312 16.8827 4.84638 16.4549C4.59965 16.027 4.44317 15.5532 4.3866 15.0625C4.33002 14.5719 4.37455 14.0749 4.51744 13.6021C4.15732 13.264 3.87029 12.8558 3.67409 12.4025C3.47788 11.9492 3.37666 11.4606 3.37666 10.9666C3.37666 10.4727 3.47788 9.98403 3.67409 9.53076C3.87029 9.07748 4.15732 8.66922 4.51744 8.33118C4.37605 7.85894 4.33272 7.36277 4.39013 6.87317C4.44753 6.38357 4.60445 5.91088 4.85124 5.48415C5.09804 5.05741 5.42949 4.68566 5.82523 4.39173C6.22096 4.0978 6.67263 3.8879 7.15247 3.77493C7.26544 3.2951 7.47533 2.84343 7.76927 2.44769C8.0632 2.05195 8.43495 1.7205 8.86168 1.47371C9.28841 1.22692 9.7611 1.06999 10.2507 1.01259C10.7403 0.955186 11.2365 0.998511 11.7087 1.1399C12.0467 0.779831 12.4549 0.492896 12.9081 0.296832C13.3613 0.100767 13.8499 -0.000259685 14.3437 -5.29309e-06C14.9056 -0.00193979 15.4601 0.127246 15.9633 0.377279C16.4664 0.627311 16.9043 0.991292 17.242 1.44028C18.0166 1.47787 18.7603 1.75564 19.37 2.23503C19.9796 2.71443 20.4248 3.37169 20.644 4.1156C20.8631 4.85951 20.8453 5.6532 20.593 6.38652C20.3407 7.11985 19.8663 7.75645 19.2358 8.20799C19.2442 8.28731 19.2442 8.37168 19.2442 8.45606V8.58684C19.8769 9.04403 20.3519 9.68648 20.6035 10.4254C21.3426 10.5958 22.0121 10.9874 22.5228 11.5481C23.0334 12.1088 23.3611 12.8119 23.4619 13.5636C23.5627 14.3152 23.432 15.0798 23.0871 15.7553C22.7423 16.4307 22.1996 16.985 21.5317 17.3441C21.5133 17.8928 21.3741 18.4306 21.1239 18.9192C20.8737 19.4078 20.5187 19.8352 20.0843 20.1708C19.6499 20.5064 19.1468 20.7419 18.6108 20.8606C18.0749 20.9793 17.5193 20.9783 16.9838 20.8575L16.5687 20.1842C16.8126 19.8804 16.9965 19.5261 17.102 19.1388C17.5116 19.2889 17.9585 19.3038 18.3772 19.1812C18.7958 19.0587 19.1642 18.8051 19.4282 18.4579C19.6852 18.1202 19.8307 17.7108 19.8443 17.2866C19.8579 16.8625 19.739 16.4446 19.5041 16.0911ZM15.5925 2.14481C15.3755 1.96081 15.1204 1.82702 14.8457 1.75299C14.571 1.67897 14.2832 1.66654 14.0031 1.7166C13.723 1.76666 13.4574 1.87796 13.2253 2.04256C12.9932 2.20716 12.8004 2.42099 12.6605 2.66878C12.9928 3.00816 13.2322 3.42737 13.3555 3.88606C13.4789 4.34474 13.4822 4.82747 13.365 5.28778C13.6222 5.43815 13.9107 5.52708 14.2079 5.54765C14.126 4.9239 14.2501 4.29047 14.5615 3.7438C14.8728 3.19713 15.3543 2.76719 15.9325 2.51943C15.8361 2.38019 15.7218 2.25424 15.5925 2.14481ZM16.2498 3.30074C15.8168 3.49026 15.4629 3.82414 15.2485 4.24543C15.0342 4.66673 14.9727 5.14933 15.0744 5.61093C15.6437 5.52243 16.2265 5.60646 16.7475 5.85219C17.2686 6.09792 17.7042 6.49408 17.998 6.98962C18.4686 6.74673 18.8264 6.33049 18.996 5.82877C19.1655 5.32705 19.1334 4.77909 18.9066 4.30055C18.6798 3.82201 18.2759 3.45032 17.7802 3.26393C17.2844 3.07755 16.7357 3.09105 16.2498 3.30159V3.30074ZM17.1315 7.21321C16.8406 6.83605 16.4268 6.57267 15.9619 6.46878C15.4971 6.3649 15.0105 6.42708 14.5867 6.64453C14.2568 6.81308 13.9789 7.06825 13.7829 7.38269C13.5868 7.69712 13.4801 8.05897 13.474 8.42945C13.4679 8.79994 13.5628 9.16509 13.7484 9.48577C13.934 9.80646 14.2034 10.0706 14.5277 10.2499C14.8123 9.72145 15.2546 9.29491 15.7929 9.02965C16.3313 8.76439 16.939 8.6736 17.5314 8.76993C17.5729 8.49666 17.5585 8.21783 17.4892 7.95027C17.4199 7.68271 17.297 7.43198 17.1281 7.21321H17.1315ZM17.2209 9.58246C16.7084 9.5438 16.2001 9.70004 15.7978 10.0199C15.3954 10.3398 15.1286 10.7998 15.0508 11.3079V11.3113C15.0086 11.5884 15.0238 11.8712 15.0956 12.1421C15.1673 12.413 15.2941 12.6663 15.468 12.8861C15.6419 13.1059 15.8592 13.2875 16.1063 13.4197C16.3535 13.5519 16.6252 13.6318 16.9045 13.6544C16.9867 13.0846 17.2373 12.5524 17.6241 12.126C18.0109 11.6996 18.5164 11.3986 19.0755 11.2615C18.9961 10.8157 18.7708 10.409 18.4352 10.105C18.0995 9.80114 17.6724 9.61732 17.2209 9.58246ZM19.748 12.0234C19.2083 12.0257 18.6915 12.2419 18.3111 12.6247C17.9307 13.0075 17.7176 13.5256 17.7187 14.0653C17.7187 14.1573 17.7247 14.2476 17.7365 14.3353H17.804C18.3525 14.3354 18.8896 14.4918 19.3524 14.7861C19.8152 15.0805 20.1845 15.5007 20.4171 15.9975C20.7707 15.876 21.0844 15.6601 21.3241 15.3731C21.5732 15.0745 21.7318 14.711 21.7813 14.3253C21.8308 13.9396 21.7691 13.5478 21.6036 13.196C21.438 12.8441 21.1755 12.5469 20.8467 12.3391C20.518 12.1314 20.1368 12.0219 19.748 12.0234ZM12.5997 4.45921C12.5821 4.22059 12.52 3.98736 12.4166 3.77156V3.77578C12.2283 3.37986 11.9108 3.05982 11.5164 2.86826C11.1221 2.6767 10.6743 2.62502 10.2466 2.72172C9.81899 2.81842 9.43698 3.05774 9.16339 3.40034C8.88981 3.74294 8.74094 4.16844 8.74125 4.60687V4.62796C9.19552 4.75771 9.60927 5.001 9.94348 5.33492C10.2777 5.66884 10.5214 6.08237 10.6515 6.53653C10.9197 6.53912 11.1855 6.48586 11.4319 6.38013C11.6784 6.2744 11.9002 6.11852 12.0831 5.92241C12.266 5.7263 12.4062 5.49425 12.4945 5.24103C12.5829 4.98781 12.6176 4.71897 12.5963 4.45162L12.5997 4.45921ZM9.66347 6.34499C9.49632 6.05101 9.25505 5.80595 8.96371 5.63423C8.67238 5.4625 8.34113 5.37011 8.00297 5.36624H7.98187C7.64142 5.36616 7.307 5.45604 7.01245 5.62677C6.71791 5.7975 6.4737 6.04303 6.30456 6.33849C6.13542 6.63395 6.04735 6.96886 6.04926 7.3093C6.05118 7.64975 6.14301 7.98364 6.31547 8.27718C6.77463 8.16192 7.25561 8.16575 7.71288 8.2883C8.17015 8.41085 8.58858 8.64806 8.92856 8.9775C9.14964 8.85287 9.344 8.68591 9.50055 8.48616C9.65709 8.2864 9.77275 8.05777 9.84092 7.81331C9.90908 7.56885 9.92842 7.31335 9.89783 7.06141C9.86724 6.80948 9.78731 6.56604 9.66262 6.34499H9.66347ZM8.90578 11.2556C8.9722 10.8182 8.88578 10.3712 8.66109 9.99C8.50333 9.72273 8.28377 9.4972 8.02082 9.33233C7.75788 9.16746 7.45923 9.06806 7.14994 9.04246C7.10446 9.03891 7.05887 9.03694 7.01325 9.03656H6.99469C6.56711 9.03637 6.15154 9.17801 5.81309 9.43929C5.47463 9.70058 5.2324 10.0668 5.12435 10.4805C5.01629 10.8941 5.04851 11.332 5.21596 11.7254C5.38341 12.1189 5.67663 12.4456 6.04969 12.6546C6.38815 12.3252 6.80526 12.088 7.26132 11.9654C7.71738 11.8428 8.19722 11.839 8.65519 11.9542C8.78289 11.7397 8.86797 11.5024 8.90578 11.2556ZM7.11281 12.9203C6.78294 13.0869 6.50749 13.3442 6.31884 13.662C6.14487 13.9554 6.05166 14.2896 6.0487 14.6307C6.04573 14.9718 6.13311 15.3076 6.30195 15.6039C6.47079 15.9003 6.71508 16.1467 7.01 16.3181C7.30491 16.4895 7.63994 16.5797 7.98103 16.5797H8.00212C8.13197 16.125 8.3756 15.7108 8.70999 15.3765C9.04438 15.0421 9.45849 14.7984 9.91322 14.6686V14.6475C9.91335 14.3232 9.83184 14.004 9.67619 13.7195C9.52054 13.4349 9.29576 13.1941 9.02258 13.0193C8.7494 12.8444 8.43661 12.7412 8.11303 12.719C7.78944 12.6969 7.46549 12.7565 7.17103 12.8925L7.11281 12.9203Z" fill="white"/>
<path d="M14.3184 16.335C14.8913 16.335 15.4086 16.5712 15.7798 16.9509C15.9966 17.1723 16.16 17.4402 16.2575 17.7342C16.355 18.0283 16.3841 18.3407 16.3426 18.6477C16.3054 18.9272 16.2107 19.196 16.0645 19.437C15.9182 19.6781 15.7236 19.8862 15.4929 20.0483L17.7694 23.7347C18.1491 24.3591 17.7862 25.2197 17.0606 25.3041C17.0353 25.3125 17.0016 25.3125 16.9678 25.3125C16.6345 25.3125 16.4675 25.1328 16.3013 24.9539C16.1342 24.7742 15.968 24.5953 15.6347 24.5953C15.3065 24.5953 15.1419 24.7733 14.9766 24.9522C14.8112 25.1319 14.6441 25.3125 14.31 25.3125C13.9818 25.3125 13.8173 25.1345 13.6519 24.9556C13.4865 24.7759 13.3194 24.5953 12.9853 24.5953C12.6571 24.5953 12.4926 24.7733 12.3272 24.9522C12.1618 25.1319 11.9948 25.3125 11.6606 25.3125H11.5594C10.8338 25.2281 10.4709 24.3675 10.8591 23.7431L13.1439 20.0475C12.7114 19.7443 12.4134 19.285 12.3126 18.7664C12.2119 18.2479 12.3163 17.7105 12.6039 17.2673C12.7742 17.0041 13.0028 16.7836 13.2721 16.6229C13.5413 16.4623 13.8439 16.3658 14.1564 16.3409L14.1868 16.3392C14.2256 16.3367 14.2644 16.3353 14.3033 16.335H14.3184Z" fill="white"/>
</g>
</g>
<defs>
<clipPath id="clip0_0_1">
<rect width="27" height="27" fill="white"/>
</clipPath>
</defs>
</svg>
